<?xml version="1.0" encoding="UTF-8"?>
<svg id="Capa_1" data-name="Capa 1" xmlns="http://www.w3.org/2000/svg" viewBox="0 0 453.99 457.45">
  <defs>
    <style>
      .cls-1 {
        fill: none;
        stroke: #1d1d1b;
        stroke-miterlimit: 10;
      }

      .cls-2 {
        fill: #e41017;
      }

      .cls-3 {
        fill: #fff;
        font-family: ArchivoNarrow-Bold, 'Archivo Narrow';
        font-size: 27.52px;
        font-variation-settings: 'wght' 700;
        font-weight: 700;
        letter-spacing: .01em;
      }

      .cls-4 {
        fill: #1d1d1b;
      }
    </style>
  </defs>
  <path class="cls-4" d="M339.55,124.98c-1.9-3.79-2.82-4.32-5.69-3.25l-16.97,7.41c.27,1.91-.31,3.75-1.46,5.54h0s-98.82,45.82-98.82,45.82l11.26,24.28,98.83-45.82c3.02,.76,6.43,2.34,2.32,11.77-.54,2.9,1.36,5.23,4.21,4.24l26-10.51-19.68-39.47Z"/>
  <path class="cls-4" d="M165.6,197.77l119.44-55.38c1.26-.58,2.83,.12,3.5,1.57l8.45,28.84c.67,1.45,.19,3.1-1.07,3.68l-115.53,53.19-14.79-31.89Z"/>
  <path class="cls-2" d="M239.86,158.49L75.01,236.64h31.66l-15.39,18.92,40.82-.73,84.96-38.05c11.95-5.52,15.46-17.85,12.96-22.88,20.92-15.82,17-38.89,9.84-35.41Z"/>
  <path class="cls-4" d="M322.91,232.8c2.22,6.18,2.81,12.02,.54,15.42-1.15,2.64-27.57,35.03-16.66,65.04,3.32,9.82,10.74,13.9,21.32,11.92,18.57-3.82,27.97-48.82,15.82-56.96-1.38,21.84-9.35,36.11-20.33,31.47-9.94-2.29-3.62-26.9,8.87-35.66,2.41-.79,2.97-2.93,2.75-5.66,.46-9.4,4.12-15.52,9.85-19.52l-22.16-6.07Z"/>
  <line class="cls-1" x1="331.69" y1="175.18" x2="328.12" y2="209.81"/>
  <line class="cls-1" x1="356.32" y1="165.62" x2="355.06" y2="220.24"/>
  <circle class="cls-2" cx="337.82" cy="221.85" r="18.5"/>
  <polygon class="cls-4" points="133.33 324 140.09 261.06 160.84 261.06 166.64 290.64 166.64 324 160.96 324 152.47 285.94 149.03 324 133.33 324"/>
  <polygon class="cls-4" points="199.96 324 193.2 261.06 172.44 261.06 166.64 290.64 166.64 324 172.33 324 180.81 285.94 184.25 324 199.96 324"/>
  <polygon class="cls-4" points="237.94 324 244.71 261.06 265.46 261.06 271.26 290.64 271.26 324 265.57 324 257.09 285.94 253.65 324 237.94 324"/>
  <polygon class="cls-4" points="304.58 324 297.81 261.06 277.06 261.06 271.26 290.64 271.26 324 276.95 324 285.43 285.94 288.87 324 304.58 324"/>
  <polygon class="cls-4" points="342.56 323.77 360.45 261.06 370.19 261.06 370.19 280.2 365.03 301.07 370.19 301.19 370.19 314.03 362.05 314.03 359.53 323.77 342.56 323.77"/>
  <polygon class="cls-4" points="397.82 323.77 379.94 261.06 370.19 261.06 370.19 280.2 375.35 301.07 370.19 301.19 370.19 314.03 378.33 314.03 380.85 323.77 397.82 323.77"/>
  <rect class="cls-4" x="98.59" y="261.06" width="32.33" height="14.33"/>
  <rect class="cls-4" x="98.59" y="309.67" width="32.33" height="14.33"/>
  <rect class="cls-4" x="98.59" y="285.36" width="30.04" height="14.33"/>
  <rect class="cls-4" x="98.59" y="270.92" width="16.17" height="40.59"/>
  <rect class="cls-4" x="203.38" y="261.06" width="32.33" height="14.33"/>
  <rect class="cls-4" x="203.38" y="309.67" width="32.33" height="14.33"/>
  <rect class="cls-4" x="203.38" y="285.36" width="30.04" height="14.33"/>
  <rect class="cls-4" x="203.38" y="270.92" width="16.17" height="40.59"/>
  <rect class="cls-4" x="69.08" y="331.17" width="348.84" height="5.04"/>
  <text class="cls-3" transform="translate(149.99 234.08) rotate(-24.53) scale(1.2 1)"><tspan x="0" y="0">rúas</tspan></text>
  <path class="cls-2" d="M115.97,138.42c-7.19-3.49-15.28-5.24-24.25-5.24-8.11,0-15.54,1.5-22.3,4.48-6.76,2.99-12.65,7.24-17.66,12.76-5.02,5.52-8.9,12-11.66,19.44-2.75,7.44-4.13,15.61-4.13,24.51,0,5.79,.59,11.26,1.75,16.42,.48,2.11,1.04,4.18,1.71,6.19l21.94-9.91c-.18-.66-.35-1.32-.5-1.99-.76-3.4-1.16-6.97-1.16-10.72,0-5.63,.8-10.76,2.39-15.38,1.59-4.62,3.86-8.62,6.81-12,2.94-3.38,6.44-6,10.5-7.86,4.05-1.86,8.49-2.79,13.32-2.79,5.21,0,9.99,1.1,14.33,3.3,4.34,2.2,8.4,5.61,12.16,10.23l14.91-16.23c-4.92-6.65-10.98-11.72-18.17-15.21Z"/>
  <path d="M110.83,192.51h-28.67v13.8h28.67v20.97c-1.55,.96-3.12,1.77-4.71,2.42-4.39,1.8-8.9,2.7-13.54,2.7s-9.24-.96-13.25-2.87c-4.01-1.91-7.48-4.56-10.43-7.94-2.95-3.38-5.21-7.41-6.8-12.09-.27-.79-.51-1.6-.73-2.42l-21.94,9.91c.21,.64,.43,1.27,.66,1.89,2.75,7.44,6.59,13.92,11.51,19.44,4.92,5.52,10.76,9.78,17.52,12.76,6.75,2.99,14.14,4.48,22.15,4.48,7.24,0,14.48-1.27,21.72-3.8,7.24-2.53,13.66-6.28,19.26-11.24v-48h-21.43Z"/>
</svg>